<svg width="130" height="49" viewBox="0 0 130 49" fill="none" xmlns="http://www.w3.org/2000/svg">
<g filter="url(#filter0_d_371_3711)">
<rect x="4.6665" y="4" width="121.333" height="41" rx="10" fill="white"/>
<path d="M36.7421 30V18.3636H38.1512V28.75H43.5603V30H36.7421ZM49.1057 30.1818C48.3179 30.1818 47.6266 29.9943 47.0319 29.6193C46.441 29.2443 45.9788 28.7197 45.6455 28.0455C45.316 27.3712 45.1512 26.5833 45.1512 25.6818C45.1512 24.7727 45.316 23.9792 45.6455 23.3011C45.9788 22.6231 46.441 22.0966 47.0319 21.7216C47.6266 21.3466 48.3179 21.1591 49.1057 21.1591C49.8936 21.1591 50.583 21.3466 51.1739 21.7216C51.7686 22.0966 52.2307 22.6231 52.5603 23.3011C52.8936 23.9792 53.0603 24.7727 53.0603 25.6818C53.0603 26.5833 52.8936 27.3712 52.5603 28.0455C52.2307 28.7197 51.7686 29.2443 51.1739 29.6193C50.583 29.9943 49.8936 30.1818 49.1057 30.1818ZM49.1057 28.9773C49.7042 28.9773 50.1966 28.8239 50.583 28.517C50.9694 28.2102 51.2554 27.8068 51.441 27.3068C51.6266 26.8068 51.7194 26.2652 51.7194 25.6818C51.7194 25.0985 51.6266 24.5549 51.441 24.0511C51.2554 23.5473 50.9694 23.1402 50.583 22.8295C50.1966 22.5189 49.7042 22.3636 49.1057 22.3636C48.5073 22.3636 48.0148 22.5189 47.6285 22.8295C47.2421 23.1402 46.9561 23.5473 46.7705 24.0511C46.5849 24.5549 46.4921 25.0985 46.4921 25.6818C46.4921 26.2652 46.5849 26.8068 46.7705 27.3068C46.9561 27.8068 47.2421 28.2102 47.6285 28.517C48.0148 28.8239 48.5073 28.9773 49.1057 28.9773ZM56.7876 30L54.1285 21.2727H55.5376L57.4239 27.9545H57.5148L59.3785 21.2727H60.8103L62.6512 27.9318H62.7421L64.6285 21.2727H66.0376L63.3785 30H62.0603L60.1512 23.2955H60.0148L58.1057 30H56.7876Z" fill="black"/>
<path d="M85.333 26.0061C85.0984 26.0065 84.8699 25.9317 84.681 25.7926L75.7779 19.2229C75.6621 19.1373 75.5642 19.0298 75.49 18.9065C75.4157 18.7831 75.3665 18.6464 75.3451 18.504C75.302 18.2166 75.3749 17.9237 75.5478 17.6899C75.7207 17.4562 75.9795 17.3006 76.2672 17.2575C76.5549 17.2144 76.8479 17.2872 77.0819 17.46L85.333 23.5425L93.5841 17.46C93.7 17.3744 93.8315 17.3125 93.9713 17.2778C94.1111 17.243 94.2564 17.2361 94.3988 17.2575C94.5413 17.2788 94.6781 17.328 94.8016 17.4022C94.925 17.4764 95.0326 17.5742 95.1182 17.6899C95.2038 17.8057 95.2658 17.9372 95.3006 18.0768C95.3353 18.2165 95.3422 18.3617 95.3209 18.504C95.2995 18.6464 95.2503 18.7831 95.176 18.9065C95.1018 19.0298 95.0039 19.1373 94.8881 19.2229L85.985 25.7926C85.7961 25.9317 85.5676 26.0065 85.333 26.0061Z" fill="#7AE229"/>
<path d="M85.333 31.7547C85.0984 31.7551 84.8699 31.6802 84.681 31.5412L75.7779 24.9714C75.544 24.7986 75.3883 24.5401 75.3451 24.2526C75.302 23.9651 75.3749 23.6723 75.5478 23.4385C75.7207 23.2047 75.9795 23.0491 76.2672 23.006C76.5549 22.9629 76.8479 23.0358 77.0819 23.2085L85.333 29.291L93.5841 23.2085C93.8181 23.0358 94.1111 22.9629 94.3988 23.006C94.6865 23.0491 94.9453 23.2047 95.1182 23.4385C95.2911 23.6723 95.364 23.9651 95.3209 24.2526C95.2777 24.5401 95.122 24.7986 94.8881 24.9714L85.985 31.5412C85.7961 31.6802 85.5676 31.7551 85.333 31.7547Z" fill="#7AE229"/>
</g>
<defs>
<filter id="filter0_d_371_3711" x="0.666504" y="0" width="129.333" height="49" filterUnits="userSpaceOnUse" color-interpolation-filters="sRGB">
<feFlood flood-opacity="0" result="BackgroundImageFix"/>
<feColorMatrix in="SourceAlpha" type="matrix" values="0 0 0 0 0 0 0 0 0 0 0 0 0 0 0 0 0 0 127 0" result="hardAlpha"/>
<feOffset/>
<feGaussianBlur stdDeviation="2"/>
<feColorMatrix type="matrix" values="0 0 0 0 0 0 0 0 0 0 0 0 0 0 0 0 0 0 0.1 0"/>
<feBlend mode="normal" in2="BackgroundImageFix" result="effect1_dropShadow_371_3711"/>
<feBlend mode="normal" in="SourceGraphic" in2="effect1_dropShadow_371_3711" result="shape"/>
</filter>
</defs>
</svg>
