<svg width="130" height="49" viewBox="0 0 130 49" fill="none" xmlns="http://www.w3.org/2000/svg">
<g filter="url(#filter0_d_371_3704)">
<rect x="4.3335" y="4" width="121.333" height="41" rx="10" fill="white"/>
<path d="M21.9091 18.3636H23.5909L27.5455 28.0227H27.6818L31.6364 18.3636H33.3182V30H32V21.1591H31.8864L28.25 30H26.9773L23.3409 21.1591H23.2273V30H21.9091V18.3636ZM39.6207 30.1818C38.7798 30.1818 38.0545 29.9962 37.4446 29.625C36.8385 29.25 36.3707 28.7273 36.0412 28.0568C35.7154 27.3826 35.5526 26.5985 35.5526 25.7045C35.5526 24.8106 35.7154 24.0227 36.0412 23.3409C36.3707 22.6553 36.8291 22.1212 37.4162 21.7386C38.0071 21.3523 38.6965 21.1591 39.4844 21.1591C39.9389 21.1591 40.3878 21.2348 40.831 21.3864C41.2741 21.5379 41.6776 21.7841 42.0412 22.125C42.4048 22.4621 42.6946 22.9091 42.9105 23.4659C43.1264 24.0227 43.2344 24.7083 43.2344 25.5227V26.0909H36.5071V24.9318H41.8707C41.8707 24.4394 41.7723 24 41.5753 23.6136C41.3821 23.2273 41.1056 22.9223 40.7457 22.6989C40.3897 22.4754 39.9692 22.3636 39.4844 22.3636C38.9503 22.3636 38.4882 22.4962 38.098 22.7614C37.7116 23.0227 37.4143 23.3636 37.206 23.7841C36.9976 24.2045 36.8935 24.6553 36.8935 25.1364V25.9091C36.8935 26.5682 37.0071 27.1269 37.2344 27.5852C37.4654 28.0398 37.7855 28.3864 38.1946 28.625C38.6037 28.8598 39.0791 28.9773 39.6207 28.9773C39.973 28.9773 40.2912 28.928 40.5753 28.8295C40.8632 28.7273 41.1113 28.5758 41.3196 28.375C41.5279 28.1705 41.6889 27.9167 41.8026 27.6136L43.098 27.9773C42.9616 28.4167 42.7325 28.803 42.4105 29.1364C42.0885 29.4659 41.6908 29.7235 41.2173 29.9091C40.7438 30.0909 40.2116 30.1818 39.6207 30.1818ZM48.5696 30.1818C47.8423 30.1818 47.2003 29.9981 46.6435 29.6307C46.0866 29.2595 45.651 28.7367 45.3366 28.0625C45.0223 27.3845 44.8651 26.5833 44.8651 25.6591C44.8651 24.7424 45.0223 23.947 45.3366 23.2727C45.651 22.5985 46.0885 22.0777 46.6491 21.7102C47.2098 21.3428 47.8575 21.1591 48.5923 21.1591C49.1605 21.1591 49.6094 21.2538 49.9389 21.4432C50.2723 21.6288 50.526 21.8409 50.7003 22.0795C50.8783 22.3144 51.0166 22.5076 51.1151 22.6591H51.2287V18.3636H52.5696V30H51.2741V28.6591H51.1151C51.0166 28.8182 50.8764 29.0189 50.6946 29.2614C50.5128 29.5 50.2533 29.714 49.9162 29.9034C49.5791 30.089 49.1302 30.1818 48.5696 30.1818ZM48.7514 28.9773C49.2893 28.9773 49.7438 28.8371 50.1151 28.5568C50.4863 28.2727 50.7685 27.8807 50.9616 27.3807C51.1548 26.8769 51.2514 26.2955 51.2514 25.6364C51.2514 24.9848 51.1567 24.4148 50.9673 23.9261C50.7779 23.4337 50.4976 23.0511 50.1264 22.7784C49.7552 22.5019 49.2969 22.3636 48.7514 22.3636C48.1832 22.3636 47.7098 22.5095 47.331 22.8011C46.956 23.089 46.6738 23.4811 46.4844 23.9773C46.2988 24.4697 46.206 25.0227 46.206 25.6364C46.206 26.2576 46.3007 26.822 46.4901 27.3295C46.6832 27.8333 46.9673 28.2348 47.3423 28.5341C47.7211 28.8295 48.1908 28.9773 48.7514 28.9773ZM55.2116 30V21.2727H56.5526V30H55.2116ZM55.8935 19.8182C55.6321 19.8182 55.4067 19.7292 55.2173 19.5511C55.0317 19.3731 54.9389 19.1591 54.9389 18.9091C54.9389 18.6591 55.0317 18.4451 55.2173 18.267C55.4067 18.089 55.6321 18 55.8935 18C56.1548 18 56.3783 18.089 56.5639 18.267C56.7533 18.4451 56.848 18.6591 56.848 18.9091C56.848 19.1591 56.7533 19.3731 56.5639 19.5511C56.3783 19.7292 56.1548 19.8182 55.8935 19.8182ZM64.5085 26.4318V21.2727H65.8494V30H64.5085V28.5227H64.4176C64.2131 28.9659 63.8949 29.3428 63.4631 29.6534C63.0313 29.9602 62.4858 30.1136 61.8267 30.1136C61.2812 30.1136 60.7964 29.9943 60.3722 29.7557C59.9479 29.5133 59.6146 29.1496 59.3722 28.6648C59.1297 28.1761 59.0085 27.5606 59.0085 26.8182V21.2727H60.3494V26.7273C60.3494 27.3636 60.5275 27.8712 60.8835 28.25C61.2434 28.6288 61.7017 28.8182 62.2585 28.8182C62.5919 28.8182 62.9309 28.733 63.2756 28.5625C63.6241 28.392 63.9157 28.1307 64.1506 27.7784C64.3892 27.4261 64.5085 26.9773 64.5085 26.4318ZM68.3054 30V21.2727H69.6009V22.6364H69.7145C69.8963 22.1705 70.1899 21.8087 70.5952 21.5511C71.0005 21.2898 71.4872 21.1591 72.0554 21.1591C72.6312 21.1591 73.1103 21.2898 73.4929 21.5511C73.8793 21.8087 74.1804 22.1705 74.3963 22.6364H74.4872C74.7107 22.1856 75.0459 21.8277 75.4929 21.5625C75.9399 21.2936 76.4759 21.1591 77.1009 21.1591C77.8812 21.1591 78.5194 21.4034 79.0156 21.892C79.5118 22.3769 79.7599 23.1326 79.7599 24.1591V30H78.419V24.1591C78.419 23.5152 78.2429 23.0549 77.8906 22.7784C77.5384 22.5019 77.1236 22.3636 76.6463 22.3636C76.0327 22.3636 75.5573 22.5492 75.2202 22.9205C74.883 23.2879 74.7145 23.7538 74.7145 24.3182V30H73.3509V24.0227C73.3509 23.5265 73.1899 23.1269 72.8679 22.8239C72.5459 22.517 72.1312 22.3636 71.6236 22.3636C71.2751 22.3636 70.9493 22.4564 70.6463 22.642C70.3471 22.8277 70.1046 23.0852 69.919 23.4148C69.7372 23.7405 69.6463 24.1174 69.6463 24.5455V30H68.3054Z" fill="black"/>
<g clip-path="url(#clip0_371_3704)">
<path d="M108.404 28.2255H90.5959C90.3052 28.2255 90.0265 28.1092 89.821 27.9022C89.6155 27.6952 89.5 27.4144 89.5 27.1217C89.5 26.8289 89.6155 26.5481 89.821 26.3411C90.0265 26.1341 90.3052 26.0178 90.5959 26.0178H108.404C108.695 26.0178 108.974 26.1341 109.179 26.3411C109.385 26.5481 109.5 26.8289 109.5 27.1217C109.5 27.4144 109.385 27.6952 109.179 27.9022C108.974 28.1092 108.695 28.2255 108.404 28.2255Z" fill="#FFA800"/>
<path d="M108.404 22.9822H90.5959C90.3052 22.9822 90.0265 22.8659 89.821 22.6589C89.6155 22.4519 89.5 22.1711 89.5 21.8784C89.5 21.5856 89.6155 21.3049 89.821 21.0978C90.0265 20.8908 90.3052 20.7745 90.5959 20.7745H108.404C108.695 20.7745 108.974 20.8908 109.179 21.0978C109.385 21.3049 109.5 21.5856 109.5 21.8784C109.5 22.1711 109.385 22.4519 109.179 22.6589C108.974 22.8659 108.695 22.9822 108.404 22.9822Z" fill="#FFA800"/>
</g>
</g>
<defs>
<filter id="filter0_d_371_3704" x="0.333496" y="0" width="129.333" height="49" filterUnits="userSpaceOnUse" color-interpolation-filters="sRGB">
<feFlood flood-opacity="0" result="BackgroundImageFix"/>
<feColorMatrix in="SourceAlpha" type="matrix" values="0 0 0 0 0 0 0 0 0 0 0 0 0 0 0 0 0 0 127 0" result="hardAlpha"/>
<feOffset/>
<feGaussianBlur stdDeviation="2"/>
<feColorMatrix type="matrix" values="0 0 0 0 0 0 0 0 0 0 0 0 0 0 0 0 0 0 0.1 0"/>
<feBlend mode="normal" in2="BackgroundImageFix" result="effect1_dropShadow_371_3704"/>
<feBlend mode="normal" in="SourceGraphic" in2="effect1_dropShadow_371_3704" result="shape"/>
</filter>
<clipPath id="clip0_371_3704">
<rect width="20" height="7.45098" fill="white" transform="translate(89.5 20.7745)"/>
</clipPath>
</defs>
</svg>
