<svg width="130" height="49" viewBox="0 0 130 49" fill="none" xmlns="http://www.w3.org/2000/svg">
<g filter="url(#filter0_d_158096_3905)">
<rect x="4.66699" y="4" width="121.333" height="41" rx="10" fill="white"/>
<path d="M36.7431 30V18.3636H38.1522V28.75H43.5613V30H36.7431ZM49.1067 30.1818C48.3188 30.1818 47.6275 29.9943 47.0328 29.6193C46.4419 29.2443 45.9798 28.7197 45.6465 28.0455C45.3169 27.3712 45.1522 26.5833 45.1522 25.6818C45.1522 24.7727 45.3169 23.9792 45.6465 23.3011C45.9798 22.6231 46.4419 22.0966 47.0328 21.7216C47.6275 21.3466 48.3188 21.1591 49.1067 21.1591C49.8946 21.1591 50.584 21.3466 51.1749 21.7216C51.7696 22.0966 52.2317 22.6231 52.5613 23.3011C52.8946 23.9792 53.0613 24.7727 53.0613 25.6818C53.0613 26.5833 52.8946 27.3712 52.5613 28.0455C52.2317 28.7197 51.7696 29.2443 51.1749 29.6193C50.584 29.9943 49.8946 30.1818 49.1067 30.1818ZM49.1067 28.9773C49.7052 28.9773 50.1976 28.8239 50.584 28.517C50.9703 28.2102 51.2563 27.8068 51.4419 27.3068C51.6275 26.8068 51.7203 26.2652 51.7203 25.6818C51.7203 25.0985 51.6275 24.5549 51.4419 24.0511C51.2563 23.5473 50.9703 23.1402 50.584 22.8295C50.1976 22.5189 49.7052 22.3636 49.1067 22.3636C48.5082 22.3636 48.0158 22.5189 47.6294 22.8295C47.2431 23.1402 46.9571 23.5473 46.7715 24.0511C46.5859 24.5549 46.4931 25.0985 46.4931 25.6818C46.4931 26.2652 46.5859 26.8068 46.7715 27.3068C46.9571 27.8068 47.2431 28.2102 47.6294 28.517C48.0158 28.8239 48.5082 28.9773 49.1067 28.9773ZM56.7885 30L54.1294 21.2727H55.5385L57.4249 27.9545H57.5158L59.3794 21.2727H60.8113L62.6522 27.9318H62.7431L64.6294 21.2727H66.0385L63.3794 30H62.0613L60.1522 23.2955H60.0158L58.1067 30H56.7885Z" fill="black"/>
<path d="M85.334 26.0059C85.0994 26.0063 84.8709 25.9315 84.682 25.7924L75.7789 19.2226C75.6631 19.1371 75.5652 19.0296 75.491 18.9062C75.4167 18.7829 75.3675 18.6461 75.3461 18.5038C75.303 18.2163 75.3759 17.9235 75.5488 17.6897C75.7217 17.4559 75.9805 17.3004 76.2682 17.2572C76.5559 17.2141 76.8489 17.287 77.0829 17.4598L85.334 23.5422L93.5851 17.4598C93.7009 17.3742 93.8325 17.3123 93.9723 17.2775C94.1121 17.2428 94.2574 17.2359 94.3998 17.2572C94.5423 17.2786 94.6791 17.3278 94.8025 17.402C94.926 17.4762 95.0336 17.5739 95.1192 17.6897C95.2048 17.8055 95.2668 17.9369 95.3015 18.0766C95.3363 18.2163 95.3432 18.3614 95.3218 18.5038C95.3005 18.6461 95.2513 18.7829 95.177 18.9062C95.1027 19.0296 95.0049 19.1371 94.8891 19.2226L85.986 25.7924C85.7971 25.9315 85.5686 26.0063 85.334 26.0059Z" fill="#7AE229"/>
<path d="M85.334 31.7544C85.0994 31.7548 84.8709 31.68 84.682 31.5409L75.7789 24.9712C75.545 24.7984 75.3893 24.5398 75.3461 24.2523C75.303 23.9648 75.3759 23.672 75.5488 23.4382C75.7217 23.2045 75.9805 23.0489 76.2682 23.0058C76.5559 22.9627 76.8489 23.0355 77.0829 23.2083L85.334 29.2908L93.5851 23.2083C93.8191 23.0355 94.1121 22.9627 94.3998 23.0058C94.6875 23.0489 94.9463 23.2045 95.1192 23.4382C95.2921 23.672 95.365 23.9648 95.3218 24.2523C95.2787 24.5398 95.123 24.7984 94.8891 24.9712L85.986 31.5409C85.7971 31.68 85.5686 31.7548 85.334 31.7544Z" fill="#7AE229"/>
</g>
<defs>
<filter id="filter0_d_158096_3905" x="0.666992" y="0" width="129.333" height="49" filterUnits="userSpaceOnUse" color-interpolation-filters="sRGB">
<feFlood flood-opacity="0" result="BackgroundImageFix"/>
<feColorMatrix in="SourceAlpha" type="matrix" values="0 0 0 0 0 0 0 0 0 0 0 0 0 0 0 0 0 0 127 0" result="hardAlpha"/>
<feOffset/>
<feGaussianBlur stdDeviation="2"/>
<feColorMatrix type="matrix" values="0 0 0 0 0 0 0 0 0 0 0 0 0 0 0 0 0 0 0.1 0"/>
<feBlend mode="normal" in2="BackgroundImageFix" result="effect1_dropShadow_158096_3905"/>
<feBlend mode="normal" in="SourceGraphic" in2="effect1_dropShadow_158096_3905" result="shape"/>
</filter>
</defs>
</svg>
